<svg xmlns="http://www.w3.org/2000/svg" width="16" height="16" fill="none" viewBox="0 0 16 16">
  <path fill="#BF2309" d="M4.405 12.353c-.724-.108-1.84-.435-2.514-.742-.18-.082-.365-.358-.478-.533-.19-.291-.368-.625-.392-.987-.04-.594.28-1.034.32-1.591.022-.305-.039-.591-.12-.88.41.194.72.552.865 1.002.085.262.103.671.256.875.279.373.733.074.778-.342.096-.867-.717-1.712-.835-2.612-.176-1.34 1.004-1.993 1.158-3.202.03-.238.003-.452 0-.69.478.457.546 1.236.434 1.874-.112.637-.59 1.504-.183 2.073.23.32.79.678 1.12.321.408-.441-.02-1.69-.051-2.26-.091-1.596 1.401-2.431.891-4.235C5.612.278 5.54.146 5.504 0c.793.244 1.401.91 1.616 1.757.315 1.246-.466 2.083-.104 3.273.15.495.502.75.68 1.21.054.138.08.289.14.424.157-.137.276-.272.35-.477.265-.718-.172-1.516-.057-2.27.098-.639.507-1.06 1.039-1.33-.154.41-.234.797-.178 1.239.123.965.806 1.749.696 2.76-.087.79-.656 1.475-.718 2.253-.044.54.297.836.68.38l.801-1.156c-.04.62.403 1.111.44 1.709.04.633-.269 1.163-.601 1.654-.866.357-1.743.713-2.661.882.427-.752.801-1.635.74-2.536-.022-.336-.127-.672-.23-.986l-.189-.383c-.027.359-.09.722-.25 1.041-.1.203-.423.606-.634.665-.255.07-.39-.233-.428-.451-.13-.721.365-1.412.332-2.156a2.425 2.425 0 0 0-.99-1.837c.004.278.111.557.129.838.073 1.155-.927 1.831-.86 2.845.013.212.1.398.12.605-.318.036-.718-.292-.838-.588-.07-.171-.084-.396-.139-.575-.038-.126-.107-.239-.147-.364-.051-.007-.032 0-.04.03-.042.148-.06.326-.106.484-.081.282-.214.55-.265.843-.15.87.219 1.818.65 2.538l-.08.032h.003Z"/>
  <path fill="#DE5219" d="M11.868 11.095c.011.055-.195.668-.233.763-.132.33-.19.434-.333.577a3.95 3.95 0 0 1-.896.673c-1.982 1.118-4.37 1.13-6.568.836l-1.105-.192c.532.202 1.076.377 1.638.488 2.08.464 4.964.307 6.747-1.073l-.327 1.293c-2.075 2.514-7.64 1.193-7.64 1.193a8.195 8.195 0 0 1-1.322-.515C.75 14.59.779 13.524.442 12.448c-.122-.39-.408-.79-.439-1.19-.01-.126 0-.182.07-.283.05-.076.303-.309.38-.34.037-.017.025.014.029.03.13.464.257.943.566 1.312 2.734 1.482 6.481 1.75 9.27.287.142-.073.566-.3.664-.398.073-.075.253-.486.307-.608.075-.17.138-.346.203-.518.03-.01.034.011.05.021.065.044.312.264.326.334Z"/>
  <path fill="#EB9019" d="m4.405 12.353.08-.032c-.432-.721-.802-1.667-.652-2.538.052-.294.184-.56.266-.843.045-.158.064-.336.106-.484.008-.03-.012-.037.04-.03.04.125.107.24.147.364.054.179.069.402.139.575.12.296.52.624.837.588-.02-.207-.106-.393-.12-.605-.066-1.012.934-1.69.86-2.845-.017-.28-.124-.56-.13-.838.57.411.958 1.098.991 1.837.034.74-.46 1.435-.331 2.156.04.218.173.522.427.451.211-.06.535-.462.635-.665.16-.32.223-.682.25-1.04l.189.382c.102.314.208.65.23.986.06.9-.313 1.784-.74 2.536a9.905 9.905 0 0 1-3.223.042v.003h-.001Z"/>
  <path fill="#DE5219" d="M14.71 5.544a.596.596 0 0 0-.301.126L11.17 8.265c-.03.055-.026.17-.02.236.01.148.223.811.285.97.02.047.067.166.122.161l4.156-2.726c.82-.722-.315-1.448-1.004-1.362Zm-.356 1.406c-.145.072-.387-.02-.31-.222a2.52 2.52 0 0 1 .19-.246c.322-.353.724-.515 1.101-.136l-.98.604Z"/>
</svg>
