<svg xmlns="http://www.w3.org/2000/svg" width="32" height="32" fill="none" viewBox="0 0 32 32">
  <path fill="#18181B" d="M8.809 24.706c-1.446-.215-3.68-.87-5.027-1.484-.362-.164-.73-.717-.957-1.067-.377-.581-.736-1.25-.784-1.972-.08-1.189.56-2.069.64-3.184.045-.61-.076-1.182-.24-1.76a3.325 3.325 0 0 1 1.731 2.005c.17.523.205 1.342.512 1.75.557.745 1.466.148 1.556-.684.192-1.735-1.434-3.424-1.67-5.223-.353-2.682 2.009-3.987 2.316-6.405.06-.476.006-.903 0-1.379.957.913 1.091 2.47.867 3.746-.224 1.275-1.18 3.01-.365 4.147.461.64 1.581 1.356 2.24.643.816-.884-.038-3.38-.102-4.52-.183-3.193 2.803-4.864 1.782-8.471-.083-.292-.227-.556-.3-.848 1.587.488 2.802 1.821 3.231 3.514.63 2.493-.931 4.167-.208 6.547.301.99 1.005 1.5 1.36 2.419.109.276.16.578.282.848.313-.273.55-.543.7-.954.528-1.436-.345-3.033-.115-4.54.195-1.278 1.015-2.12 2.077-2.659-.307.82-.467 1.593-.355 2.477.246 1.93 1.613 3.498 1.392 5.518-.173 1.58-1.312 2.952-1.437 4.507-.086 1.08.595 1.674 1.36.762l1.603-2.313c-.08 1.24.806 2.223.88 3.418.08 1.265-.537 2.325-1.203 3.308-1.731.713-3.485 1.427-5.321 1.764.854-1.504 1.603-3.27 1.481-5.072-.045-.672-.256-1.343-.46-1.973l-.378-.764c-.055.716-.18 1.442-.5 2.081-.201.405-.847 1.211-1.27 1.33-.509.142-.777-.466-.854-.902-.26-1.443.73-2.824.662-4.311a4.85 4.85 0 0 0-1.98-3.675c.01.556.223 1.114.259 1.677.147 2.31-1.853 3.662-1.722 5.688.029.424.202.797.24 1.212-.633.07-1.433-.585-1.673-1.176-.141-.344-.17-.794-.279-1.15-.077-.254-.214-.479-.294-.73-.103-.012-.064 0-.08.062-.083.295-.119.652-.211.967-.164.565-.43 1.098-.532 1.686-.3 1.741.439 3.636 1.303 5.076l-.16.064h.003Z"/>
  <path fill="#18181B" d="M23.736 22.19c.023.11-.39 1.337-.467 1.526-.262.659-.38.868-.665 1.153-.522.543-1.143.974-1.792 1.346-3.965 2.236-8.74 2.262-13.136 1.674l-2.21-.385c1.065.404 2.153.755 3.276.976 4.16.928 9.929.614 13.494-2.146l-.653 2.586c-4.15 5.027-15.28 2.387-15.28 2.387a16.38 16.38 0 0 1-2.646-1.031c-2.156-1.096-2.099-3.229-2.774-5.38-.243-.781-.816-1.581-.877-2.381-.019-.25 0-.363.141-.565.1-.151.605-.617.758-.681.074-.033.052.029.058.06.262.929.515 1.886 1.133 2.625 5.468 2.965 12.962 3.498 18.54.575.285-.148 1.133-.6 1.328-.797.147-.15.505-.973.614-1.217.15-.337.275-.69.406-1.034.061-.02.068.022.1.041.13.087.624.527.652.669Zm5.684-11.101c-.218.029-.43.109-.602.25L22.34 16.53c-.057.11-.051.34-.038.473.019.295.445 1.622.57 1.94.038.093.134.33.243.321l8.313-5.451c1.638-1.446-.63-2.898-2.01-2.724Zm-.711 2.81c-.291.145-.774-.038-.62-.443.022-.057.316-.424.38-.491.643-.707 1.446-1.031 2.201-.273L28.71 13.9Z"/>
</svg>
