<svg xmlns="http://www.w3.org/2000/svg" width="168" height="58" fill="none" viewBox="0 0 168 58">
  <path fill="#38BDF8" d="M67.73 20.26h-4.25V5.84h4.25v5.17h3.96V5.84h4.28v14.42h-4.28v-5.38h-3.96v5.38Zm13.38 0h-4.39L81.9 5.84h4.44l5.01 14.42h-4.37l-.6-2h-4.69l-.58 2Zm2.41-8.29c-.18.64-.34 1.21-.49 1.71l-.37 1.26h2.76l-.37-1.26-1.04-3.57c-.15.6-.32 1.22-.49 1.85v.01Zm14.06 3.05-2.69-.58c-1.18-.26-2-.7-2.47-1.31-.47-.61-.7-1.48-.7-2.6 0-1.69.44-2.93 1.33-3.73.89-.8 2.29-1.2 4.21-1.2.83 0 1.57.03 2.23.1.66.07 1.23.17 1.7.31V9.8c-1.09-.18-1.89-.29-2.39-.33-.51-.04-1.03-.06-1.56-.06-.51 0-.87.07-1.09.21-.22.14-.33.37-.33.69 0 .17.04.3.13.39.08.09.23.16.45.21l2.51.55c.78.17 1.36.35 1.75.54.38.19.69.43.92.7.26.31.45.7.56 1.17.12.48.17 1.05.17 1.72 0 1.72-.46 2.96-1.38 3.74-.92.78-2.34 1.16-4.25 1.16-.98 0-1.93-.05-2.84-.16-.91-.11-1.59-.25-2.04-.41V15.9c.58.18 1.32.34 2.22.46.9.12 1.79.18 2.68.18.54 0 .91-.06 1.13-.18.21-.12.32-.35.32-.67 0-.21-.03-.37-.1-.46-.07-.09-.22-.17-.45-.23l-.02.02Zm10.19 5.24h-4.25V5.84h4.25v5.17h3.96V5.84h4.28v14.42h-4.28v-5.38h-3.96v5.38Zm-24.54 23.1v6.25c-.81.5-2.12.94-3.93 1.31-1.81.37-3.68.55-5.59.55-3.63 0-6.17-.96-7.63-2.9s-2.19-5.28-2.19-10.05c0-4.77.94-8.12 2.82-10.05 1.88-1.93 5.17-2.9 9.87-2.9 1.14 0 2.17.03 3.07.08.91.05 1.88.14 2.92.28v6.7c-1.65-.13-2.84-.21-3.58-.23-.74-.02-1.55-.03-2.42-.03-2.32 0-3.75.33-4.31.98-.55.65-.83 2.38-.83 5.16 0 2.52.23 4.13.68 4.84.45.71 1.5 1.06 3.15 1.06 1.34 0 2.75-.1 4.21-.3 1.46-.2 2.71-.45 3.75-.75h.01Zm23.73.25v6c-.81.5-2.17.94-4.08 1.31-1.91.37-3.93.55-6.05.55-4.03 0-6.94-1.02-8.72-3.05-1.78-2.03-2.67-5.33-2.67-9.9s.94-7.74 2.82-9.82 4.85-3.12 8.92-3.12 6.76.78 8.39 2.34c1.63 1.56 2.44 4.32 2.44 8.29 0 1.08-.02 1.93-.05 2.57-.03.64-.1 1.38-.2 2.22H93.05c.03 1.38.4 2.33 1.11 2.87.71.54 2 .81 3.88.81 1.61 0 3.26-.11 4.94-.33 1.68-.22 3.01-.46 3.98-.73v-.01Zm-9.78-11.58c-1.61 0-2.7.28-3.27.83-.57.55-.86 1.64-.86 3.25h8.11V35c-.03-1.17-.31-1.96-.83-2.37-.52-.4-1.57-.6-3.15-.6Zm21.87 18.94h-7.56V26.08h7.05l.25 1.91h.1c1.21-.74 2.44-1.3 3.7-1.69 1.26-.39 2.44-.58 3.55-.58h.4v7.3c-.3-.07-.63-.11-.98-.12-.35-.01-.8-.03-1.33-.03-.97 0-1.9.06-2.77.18-.87.12-1.68.29-2.42.53v17.38l.01.01Zm11.94-18.59h-2.92v-6.3h3.17l.96-5.79h6.35v5.79h7.05v6.3h-7.05v9.67c0 .94.24 1.57.73 1.89.49.32 1.45.48 2.9.48.5 0 1.12-.04 1.86-.13.74-.08 1.36-.18 1.86-.28v6.45c-.54.24-1.37.46-2.49.68-1.13.22-2.12.33-3 .33-3.36 0-5.77-.71-7.23-2.14-1.46-1.43-2.19-3.75-2.19-6.98v-9.97Zm27.7-.4c-1.41 0-2.36.11-2.85.33-.49.22-.73.71-.73 1.49 0 .3.09.55.28.73.18.19.44.29.78.33l6 .81c1.95.27 3.32.9 4.11 1.89.79.99 1.18 2.56 1.18 4.71 0 3.22-.72 5.57-2.17 7.03-1.44 1.46-3.96 2.19-7.56 2.19-1.98 0-3.77-.08-5.37-.23-1.6-.15-2.95-.36-4.06-.63v-6.55c.84.2 2.01.38 3.5.53 1.49.15 3.01.23 4.56.23 1.38 0 2.31-.14 2.8-.43.49-.29.73-.83.73-1.64 0-.27-.08-.5-.25-.68a1.1 1.1 0 0 0-.65-.33l-6.2-.81c-1.81-.23-3.13-.9-3.95-1.99-.82-1.09-1.23-2.71-1.23-4.86 0-2.82.89-4.95 2.67-6.37 1.78-1.43 4.42-2.14 7.91-2.14 1.38 0 2.65.03 3.83.1 1.18.07 2.42.2 3.73.4v6.3c-.84-.13-1.88-.23-3.12-.3-1.24-.07-2.55-.1-3.93-.1l-.01-.01ZM46.79 17.77l2.15-5.98h-9.61l3.15-8.38h-6.94l-3.2 8.38h-6.23l3.15-8.38h-6.94l-3.2 8.38h-8.95l-2.51 5.98h9.17l-1.53 4.01H6.34l-2.51 5.98h9.18l-5.35 14h7.18l5.26-14h6.13l-5.35 14h7.18l5.26-14h9.64l2.15-5.98h-9.54l1.51-4.01h9.71Zm-18.27 4.01h-6.17l1.51-4.01h6.19l-1.53 4.01ZM44.75 0l15.26 27.14-5.03 15.83h-8.2l-5.03 14.12h-29.8L3.03 44.28l2.75-6.52L.1 28.55 7.64 8.56h8.56L19.8 0h24.95Z"/>
</svg>
