<svg xmlns="http://www.w3.org/2000/svg" width="103" height="32" fill="none" viewBox="0 0 103 32">
  <path fill="#18181B" d="M8.83 24.706c-1.45-.215-3.689-.87-5.04-1.484-.362-.164-.73-.717-.958-1.067-.379-.581-.738-1.25-.786-1.972-.08-1.189.561-2.069.642-3.184.044-.61-.077-1.182-.241-1.76a3.327 3.327 0 0 1 1.735 2.005c.17.523.205 1.342.513 1.75.558.745 1.47.148 1.559-.684.192-1.735-1.437-3.424-1.674-5.223-.353-2.682 2.014-3.987 2.322-6.405.06-.476.006-.903 0-1.379.959.913 1.093 2.47.869 3.746-.225 1.275-1.183 3.01-.366 4.147.462.64 1.585 1.356 2.245.643.818-.884-.038-3.38-.102-4.52-.183-3.193 2.81-4.864 1.786-8.471-.083-.292-.227-.556-.301-.848 1.59.488 2.81 1.821 3.239 3.514.632 2.493-.933 4.167-.209 6.547.302.99 1.008 1.5 1.364 2.419.109.276.16.578.282.848.314-.273.552-.543.702-.954.53-1.436-.346-3.033-.115-4.54.195-1.278 1.017-2.12 2.081-2.659-.308.82-.468 1.593-.356 2.477.247 1.93 1.617 3.498 1.395 5.518-.173 1.58-1.315 2.952-1.44 4.507-.086 1.08.597 1.674 1.363.762l1.607-2.313c-.08 1.24.808 2.223.882 3.418.08 1.265-.539 2.325-1.206 3.308-1.735.713-3.492 1.427-5.333 1.764.856-1.504 1.606-3.27 1.485-5.072-.045-.672-.257-1.343-.462-1.973l-.379-.764c-.054.716-.18 1.442-.5 2.081-.202.405-.85 1.211-1.273 1.33-.51.142-.78-.466-.857-.902-.26-1.443.732-2.824.664-4.311a4.846 4.846 0 0 0-1.985-3.675c.01.556.225 1.114.26 1.677.147 2.31-1.857 3.662-1.726 5.688.03.424.202.797.24 1.212-.634.07-1.436-.585-1.676-1.176-.142-.344-.17-.794-.28-1.15-.076-.254-.214-.479-.295-.73-.102-.012-.064 0-.08.062-.083.295-.118.652-.211.967-.164.565-.43 1.098-.533 1.686-.301 1.741.44 3.636 1.305 5.076l-.16.064h.003Z"/>
  <path fill="#18181B" d="M23.791 22.19c.023.11-.391 1.337-.468 1.526-.263.659-.382.868-.667 1.153-.523.543-1.145.974-1.796 1.346-3.974 2.236-8.76 2.262-13.166 1.674l-2.216-.385c1.068.404 2.158.755 3.284.976 4.17.928 9.952.614 13.525-2.146l-.654 2.586c-4.16 5.027-15.315 2.387-15.315 2.387a16.39 16.39 0 0 1-2.652-1.031c-2.162-1.096-2.104-3.229-2.781-5.38-.244-.781-.818-1.581-.879-2.381-.019-.25 0-.363.141-.565.1-.151.607-.617.76-.681.074-.033.052.029.058.06.263.929.517 1.886 1.136 2.625 5.48 2.965 12.992 3.498 18.582.575.286-.148 1.136-.6 1.331-.797.148-.15.507-.973.616-1.217.15-.337.276-.69.407-1.034.061-.02.068.022.1.041.131.087.625.527.654.669Zm5.696-11.101a1.2 1.2 0 0 0-.603.25l-6.491 5.191c-.058.11-.052.34-.039.473.02.295.446 1.622.571 1.94.039.093.135.33.244.321l8.332-5.451c1.642-1.446-.632-2.898-2.014-2.724Zm-.712 2.81c-.292.145-.776-.038-.622-.443.022-.057.317-.424.382-.491.644-.707 1.45-1.031 2.206-.273L28.775 13.9Zm9.051 3.402H34.93V5.571h4.278c1.806 0 3.089.314 3.849.944.76.63 1.139 1.686 1.139 3.17s-.401 2.56-1.206 3.264c-.802.703-2.047 1.057-3.727 1.057h-1.437V17.3Zm3.438-7.613c0-.549-.15-.935-.449-1.16-.298-.224-.834-.337-1.607-.337h-1.382v3.274h1.382c.786 0 1.322-.132 1.617-.392.291-.264.44-.723.44-1.385Zm2.393 7.613 4.333-11.73h3.008l4.22 11.73h-3.024l-.616-1.965H47.32l-.616 1.965h-3.046Zm5.77-8.85c-.1.35-.209.72-.328 1.112-.118.392-.314 1.031-.587 1.918l-.484 1.551h2.82l-.485-1.551c-.16-.476-.324-.977-.484-1.507-.16-.53-.311-1.037-.45-1.526l-.003.004ZM66.2 5.57v11.731h-2.764l-4.632-6.771v6.77h-2.707V5.571h2.746l4.65 7.034V5.57H66.2Zm5.882 11.731h-4.089V5.571h4.09c1.196 0 2.145.099 2.847.298.703.199 1.267.517 1.69.954.424.437.732 1.025.924 1.767.193.742.289 1.686.289 2.833 0 2.033-.456 3.52-1.363 4.462-.908.941-2.373 1.413-4.39 1.413l.002.003ZM74.38 8.94c-.174-.264-.43-.453-.767-.572-.337-.119-.846-.177-1.533-.177h-1.196v6.4h1.196c.674 0 1.177-.055 1.514-.168.337-.112.596-.292.786-.543.16-.237.279-.552.356-.944.073-.392.112-.896.112-1.507 0-.61-.038-1.13-.112-1.526-.074-.391-.193-.713-.356-.963Zm15.483 2.486c0 2.133-.433 3.675-1.299 4.629-.866.954-2.27 1.433-4.21 1.433-1.941 0-3.455-.45-4.28-1.346-.82-.9-1.23-2.47-1.23-4.716 0-2.245.432-3.672 1.298-4.62.866-.947 2.27-1.422 4.211-1.422 1.94 0 3.454.45 4.279 1.346.82.9 1.231 2.464 1.231 4.696Zm-7.732 2.509c.16.311.4.53.718.655.317.126.818.187 1.504.187.687 0 1.187-.061 1.504-.187a1.34 1.34 0 0 0 .719-.655c.125-.25.215-.575.27-.973.054-.399.083-.91.083-1.536s-.03-1.156-.084-1.561c-.054-.405-.147-.732-.27-.983a1.301 1.301 0 0 0-.698-.684c-.318-.132-.825-.196-1.524-.196-.699 0-1.206.064-1.523.196a1.29 1.29 0 0 0-.7.684c-.124.25-.214.578-.269.983-.054.405-.083.925-.083 1.561 0 .636.029 1.134.083 1.536.055.398.148.722.27.973Zm20.866-8.365v11.731h-2.707v-7.034l-1.998 4.789h-2.354l-1.963-4.79v7.035h-2.707V5.571h3.531l2.373 5.91L99.6 5.57h3.4-.003ZM36.848 22.09c-.282 0-.475.03-.578.084-.102.055-.154.177-.154.363 0 .09.023.158.065.203.041.045.115.077.215.093l.98.145c.315.041.533.14.658.295.126.154.186.398.186.736 0 .485-.112.835-.333 1.053-.225.219-.603.328-1.142.328-.308 0-.59-.013-.847-.039a3.62 3.62 0 0 1-.648-.118v-.823a5.575 5.575 0 0 0 1.331.154c.276 0 .465-.035.562-.102.1-.068.147-.2.147-.392 0-.097-.022-.17-.07-.219-.048-.051-.128-.083-.24-.1l-.998-.144c-.273-.038-.472-.138-.6-.308-.128-.167-.192-.411-.192-.733 0-.43.131-.751.394-.96.263-.209.664-.312 1.2-.312.218 0 .416.007.6.016.179.01.365.033.557.065v.79a5.424 5.424 0 0 0-.497-.052 9.184 9.184 0 0 0-.603-.019l.007-.003Zm5.147 2.266v.751c-.131.08-.343.148-.625.203a4.71 4.71 0 0 1-.889.083c-.628 0-1.077-.16-1.353-.479-.276-.318-.41-.848-.41-1.583 0-.736.144-1.224.43-1.552.285-.327.74-.488 1.362-.488.623 0 1.027.125 1.277.376.25.25.375.68.375 1.288 0 .113 0 .215-.006.308a14.67 14.67 0 0 1-.032.39H39.65c.006.33.077.561.218.696.141.135.391.2.754.2.24 0 .487-.02.74-.055a4.25 4.25 0 0 0 .63-.135l.002-.003ZM40.51 22.1c-.324 0-.548.064-.673.192-.125.129-.186.36-.186.697h1.668v-.167c-.007-.273-.068-.459-.183-.562-.119-.103-.324-.157-.622-.157l-.004-.003Zm5.193 2.998c-.138.08-.343.147-.62.208a4.103 4.103 0 0 1-.85.087c-.563 0-.958-.15-1.189-.456-.23-.305-.343-.835-.343-1.6 0-.764.147-1.281.443-1.587.295-.305.805-.459 1.526-.459a6.853 6.853 0 0 1 .927.058v.822a16.211 16.211 0 0 0-.542-.035c-.154-.006-.282-.013-.382-.013-.436 0-.718.077-.85.231-.131.155-.195.482-.195.983s.051.803.157.96c.103.155.32.232.651.232.218 0 .443-.02.673-.061.231-.038.43-.09.594-.148v.778Zm1.917.295c-.442 0-.772-.11-.99-.33-.218-.222-.327-.553-.327-.996v-2.692h.927v2.573c0 .202.054.35.16.44.106.09.279.135.52.135.147 0 .3-.016.455-.049.154-.032.298-.073.43-.128V21.37h.926v3.948h-.853l-.032-.273h-.022a3.783 3.783 0 0 1-.626.257 1.914 1.914 0 0 1-.56.087l-.007.003Zm3.9-.07h-.926v-3.948h.853l.038.32h.023c.196-.115.398-.208.6-.272.202-.064.397-.097.59-.097h.109c.02 0 .032 0 .045.01v.896a.566.566 0 0 0-.125-.019c-.052 0-.138-.003-.26-.003-.186 0-.36.016-.52.048-.16.032-.304.077-.43.135v2.933l.004-.003Zm2.849-4.511h-.982v-.806h.982v.806Zm-.023 4.51h-.927v-3.947h.927v3.948Zm3.336-.864v.79a1.85 1.85 0 0 1-.379.1c-.16.03-.31.045-.442.045-.507 0-.866-.11-1.084-.33-.218-.222-.327-.592-.327-1.109v-1.805h-.526v-.774h.551l.129-.945h.773v.945h1.26v.774h-1.26v1.773c0 .234.05.395.15.479.103.086.282.128.542.128.09 0 .196-.006.321-.02a1.67 1.67 0 0 0 .295-.05h-.003Zm.981 1.35c.196 0 .343-.036.44-.11.096-.074.18-.221.247-.453l-1.55-3.877h1.037l.98 2.965.934-2.965h.998l-1.508 4.125c-.147.405-.33.694-.545.864-.215.17-.497.257-.85.257a3.857 3.857 0 0 1-.622-.055v-.774a.96.96 0 0 0 .15.02c.058 0 .155.003.29.003Zm8.657-2.58v1.686c-.17.145-.417.26-.741.347a4.11 4.11 0 0 1-1.068.132c-.792 0-1.373-.215-1.735-.642-.366-.428-.546-1.109-.546-2.034 0-.825.183-1.445.546-1.863.365-.414.907-.623 1.632-.623.526 0 .933.125 1.222.373.289.247.43.594.43 1.044 0 .154-.016.298-.052.43a1.252 1.252 0 0 1-.157.366h1.501v.784H67.32Zm-1.165-1.526a.55.55 0 0 0-.211-.46c-.141-.108-.344-.163-.603-.163-.41 0-.703.116-.882.347-.18.231-.267.62-.267 1.163.697-.01 1.2-.084 1.505-.215.304-.132.458-.357.458-.672Zm-.632 2.811c.203 0 .385-.013.546-.039a.991.991 0 0 0 .346-.102v-1.51c-.228.148-.523.26-.885.334a6.795 6.795 0 0 1-1.302.119c.054.427.18.732.382.918.201.187.506.28.91.28h.004Zm6.091-2.423c-.282 0-.475.03-.577.084-.103.055-.154.177-.154.363 0 .09.022.158.064.203.042.045.115.077.215.093l.981.145c.315.041.533.14.658.295.125.154.186.398.186.736 0 .485-.112.835-.334 1.053-.224.219-.603.328-1.142.328a8.54 8.54 0 0 1-.846-.039 3.619 3.619 0 0 1-.648-.118v-.823a5.507 5.507 0 0 0 1.331.154c.276 0 .465-.035.561-.102.1-.068.148-.2.148-.392 0-.097-.023-.17-.07-.219-.049-.051-.13-.083-.241-.1l-.998-.144c-.273-.038-.471-.138-.6-.308-.128-.167-.192-.411-.192-.733 0-.43.131-.751.394-.96.263-.209.664-.312 1.2-.312.218 0 .417.007.6.016.18.01.365.033.558.065v.79a5.426 5.426 0 0 0-.497-.052 9.187 9.187 0 0 0-.603-.019l.006-.003Zm4.876 3.008c-.139.08-.344.147-.62.208a4.102 4.102 0 0 1-.85.087c-.564 0-.959-.15-1.19-.456-.23-.305-.343-.835-.343-1.6 0-.764.148-1.281.443-1.587.295-.305.805-.459 1.526-.459a6.834 6.834 0 0 1 .927.058v.822a16.211 16.211 0 0 0-.542-.035c-.154-.006-.282-.013-.381-.013-.437 0-.719.077-.85.231-.132.155-.196.482-.196.983s.051.803.157.96c.103.155.32.232.651.232.218 0 .443-.02.674-.061.23-.038.43-.09.593-.148v.778Zm1.545.295c-.404 0-.703-.1-.888-.299-.187-.199-.283-.514-.283-.938 0-.424.112-.745.34-.928.228-.18.616-.273 1.17-.273a4.45 4.45 0 0 1 .886.087v-.334c0-.21-.064-.36-.192-.456-.129-.097-.33-.145-.606-.145-.25 0-.472.01-.668.026a4.172 4.172 0 0 0-.554.08v-.774c.202-.048.42-.084.657-.11.237-.022.516-.035.84-.035.485 0 .847.11 1.084.331.24.222.36.553.36.996v2.702h-.854l-.038-.35h-.016c-.17.128-.366.23-.587.308a1.962 1.962 0 0 1-.651.115v-.003Zm.449-1.773c-.289 0-.484.032-.59.1-.106.067-.16.192-.16.379 0 .186.044.311.13.388.087.077.238.116.453.116.154 0 .318-.023.49-.068.174-.044.325-.102.453-.173v-.681a3.95 3.95 0 0 0-.378-.048 5.134 5.134 0 0 0-.395-.016l-.003.003Zm3.48-3.614v5.313h-.927v-5.313h.927Zm1.793 5.387c-.404 0-.703-.1-.889-.299-.186-.199-.282-.514-.282-.938 0-.424.112-.745.34-.928.228-.18.616-.273 1.17-.273a4.463 4.463 0 0 1 .886.087v-.334c0-.21-.064-.36-.193-.456-.128-.097-.33-.145-.606-.145-.25 0-.471.01-.667.026a4.172 4.172 0 0 0-.555.08v-.774c.202-.048.42-.084.658-.11.237-.022.516-.035.84-.035.484 0 .847.11 1.084.331.24.222.36.553.36.996v2.702h-.854l-.038-.35h-.016c-.17.128-.366.23-.587.308a1.962 1.962 0 0 1-.651.115v-.003Zm.449-1.773c-.289 0-.485.032-.59.1-.106.067-.16.192-.16.379 0 .186.044.311.13.388.087.077.238.116.453.116.154 0 .317-.023.49-.068.174-.044.325-.102.453-.173v-.681a3.95 3.95 0 0 0-.379-.048 5.134 5.134 0 0 0-.394-.016l-.003.003Zm4.692-2.326c.532 0 .91.154 1.132.47.224.31.334.828.334 1.554 0 .726-.145 1.266-.437 1.59-.292.325-.766.488-1.433.488-.34 0-.658-.019-.953-.054a5.037 5.037 0 0 1-.795-.16v-5.173h.927v1.6c.186-.1.385-.18.6-.231.211-.055.42-.08.622-.08l.003-.004Zm.542 2.02c0-.462-.058-.777-.173-.944-.116-.163-.35-.247-.706-.247a2.136 2.136 0 0 0-.888.193v2.142c.096.026.205.045.327.055.122.01.266.016.43.016.41 0 .68-.084.811-.247.132-.164.196-.489.196-.967h.003Zm2.585-2.502h-.982v-.806h.982v.806Zm-.026 4.51h-.927v-3.947H92v3.948Zm1.796-5.316v5.313h-.927v-5.313h.927Zm1.819.806h-.982v-.806h.982v.806Zm-.023 4.51h-.927v-3.947h.927v3.948Zm3.336-.864v.79a1.85 1.85 0 0 1-.379.1c-.16.03-.31.045-.442.045-.507 0-.866-.11-1.084-.33-.218-.222-.327-.592-.327-1.109v-1.805h-.526v-.774h.551l.129-.945h.772v.945h1.26v.774h-1.26v1.773c0 .234.052.395.151.479.103.086.282.128.542.128.09 0 .196-.006.321-.02a1.65 1.65 0 0 0 .295-.05h-.003Zm.981 1.35c.196 0 .343-.036.44-.11.096-.074.179-.221.247-.453l-1.55-3.877h1.036l.982 2.965.933-2.965h.998l-1.508 4.125c-.147.405-.33.694-.545.864-.215.17-.497.257-.85.257a3.857 3.857 0 0 1-.622-.055v-.774c.041.01.093.016.15.02.058 0 .154.003.29.003Z"/>
</svg>
