<svg xmlns="http://www.w3.org/2000/svg" width="60" height="58" fill="none" viewBox="0 0 60 58">
  <path fill="#38BDF8" d="m46.67 18.59 2.15-5.98h-9.61l3.15-8.38h-6.94l-3.2 8.38h-6.23l3.15-8.38H22.2L19 12.61h-8.95l-2.51 5.98h9.17l-1.53 4.01H6.22l-2.51 5.98h9.18l-5.35 14h7.18l5.26-14h6.13l-5.35 14h7.18l5.26-14h9.64l2.15-5.98h-9.54l1.51-4.01h9.71Zm-18.27 4h-6.17l1.51-4.01h6.19l-1.53 4.01ZM44.64.81 59.9 27.95l-5.03 15.83h-8.2L41.64 57.9H11.85L2.93 45.09l2.75-6.52L0 29.36 7.54 9.37h8.56L19.69.81h24.95Z"/>
</svg>
